<svg width="748" height="467" aria-label="A chart." style="overflow: hidden;">
  <defs id="_ABSTRACT_RENDERER_ID_0">
    <clipPath id="_ABSTRACT_RENDERER_ID_1">
      <rect x="1" y="3" width="747" height="462"></rect>
    </clipPath>
    <linearGradient id="_ABSTRACT_RENDERER_ID_2" x1="61.465248982235245" y1="434.5" x2="191.53475101776476" y2="434.5" gradientUnits="userSpaceOnUse">
      <stop offset="0%" style="stop-color:#90ee90;stop-opacity:1"></stop>
      <stop offset="100%" style="stop-color:#ff0000;stop-opacity:1"></stop>
    </linearGradient>
  </defs>
  <g>
    <rect x="0" y="0" width="748" height="467" stroke="#ffffff" stroke-width="1" fill="#ffffff"></rect>
    <g clip-path="url(https://www.ansd.sn/index.php?option=com_regions&amp;view=regions&amp;Itemid=213#_ABSTRACT_RENDERER_ID_1)">
      <g>
        <g>
          <path d="M304.842998496994,326.62901121836774L313.24487725450894,322.02097172329235L315.4997244488978,325.8687310602255L323.0408316633266,331.9138854883705L329.21593186372735,335.1218968873547L344.26072144288565,338.8305805856031L347.53539579158314,342.5578077023419L354.4683491983967,346.3313933653085L361.2048221442885,345.33932047602764L365.0221568136272,348.60296213048537L372.7971693386773,350.0678921912939L380.0669463927855,355.964699271508L390.0219564128256,355.6865479941397L393.82057865731457,357.63360693572014L402.9054609218437,357.05876096249125L404.96382765531064,352.50635172289236L407.237387274549,351.34738806718906L428.5134143286573,347.4625418932745L433.2289453907816,343.2995444419912L435.1095440881763,337.8292359870762L427.5590806613225,327.741616327842L420.30801603206413,323.57861887655764L404.4960170340681,326.4343053242085L393.06272545090184,332.841056412932L383.6035946893787,334.29671476449425L373.1714178356713,327.8157900018056L370.2803481963927,321.38122378534666L366.3226703406814,317.65399666860606L358.5102329659318,315.85528507495553L348.9014028056111,319.6566858656597L342.3707665330661,315.1042766260606L341.33222695390776,309.4578056954793L337.5990981963928,305.0908306407909L330.95618737474956,302.0867968452106L324.3974824649299,302.25368761163173L315.18161322645295,299.41654458247115L301.8396543086171,306.31469626121265L293.91494238476946,304.1265728792465L286.9632765531062,305.9160127636518L279.7870616232464,313.2406630676925L277.6164203406814,322.2249493266968L176.66288827655322,322.07660197876675L178.47799348697382,325.6647534568224L176.76580661322635,332.2476670212134L181.60296843687365,334.63976800658173L182.78185120240462,337.48618274498705L180.72348446893784,344.0598246001318L190.18261523046078,347.09167352345L199.23942885771547,346.2294045636079L214.73331663326667,335.1033534688635L219.7108216432864,336.61464207589944L241.88504509018037,334.09273716109044L249.2670966933867,334.74175680828375L259.1098321643286,330.27279295189516L264.6019288577154,332.8688715406696L266.6602955911823,330.43041200907066L267.8391783567135,332.9245017961432L264.2370365731462,336.049067811916L258.73558366733465,332.5629051355636L252.53241482965927,336.0768829396544L241.30495991983972,336.0027092656888L238.78813877755505,337.9961267534979L225.3432615230461,338.3669951233205L222.3399173346694,339.7299363824274L214.69589178356705,337.50472616347906L208.05298096192394,343.5127937546415L206.74311122244472,347.8983122278188L194.85136523046086,352.57125368761234L186.4775551102203,352.57125368761234L175.9985971943888,348.9645587910645L171.7321643286573,337.5510847097072L175.10975701402813,336.51265327419674L174.81971442885782,334.87156073772286L167.10083917835684,333.5642497340905L164.97697895791595,331.6357342110011L153.3191382765531,342.9194043629209L151.8689253507015,346.3962953300287L154.5635145290582,354.92626783599934L155.57398547094198,369.82590459371073L159.2977580160321,371.5411708041498L159.39132014028038,367.6748680487273L164.6588677354708,362.5846996728809L246.62864478957908,363.0297417166703L247.04967434869735,345.69164542736166L259.8583291583167,344.0412811816407L267.6520541082164,345.9790684139749L274.8750501002003,341.3153986634289L286.72001503006,345.4598526962208L294.91605711422835,343.84657528748403L301.605748997996,337.1802163398818L304.00093937875755,327.54691043368376Z" stroke="#e6e6e6" stroke-width="1" fill="#ffffff"></path>
          <path d="M443.7359719438877,472.732605510848L442.3606087174349,484.3778723233452L442.5009519038076,488.0958277308384L822.6999999999999,488.0958277308384L822.6999999999999,459.18663830299545L820.5948522044089,461.4118485219443L820.7819764529057,465.66756306568425L818.527129258517,470.8782636617229L811.9964929859718,470.1179835035809L808.2259393787575,467.76296935519343L801.3959043086173,467.72588251821173L798.4486973947895,463.80394950731545L793.1717935871742,463.8132212165603L790.2807239478958,460.9853498966462L784.8915455911823,458.94557386261073L784.1617610220441,459.9469184611375L781.925626252505,456.09915912420524L776.4990230460922,456.7667221898895L772.1858091182365,454.1057416363952L767.676114729459,454.2355455658352L767.1989478957915,452.7242569587997L763.9616983967936,452.9745931084297L762.9699398797595,455.0421842702044L761.4916583166332,452.3997471352021L758.6941508016033,451.75999919725547L759.0964679358717,455.3852375122917L756.9351828657315,454.91238034076554L755.7188752505009,457.24885107066046L752.0138151302605,456.7759938991348L751.7050601202405,459.76148427622456L747.7380260521041,462.0886832968747L742.1149423847695,462.44100824820845L743.1721943887775,465.1947058941564L741.6471317635271,465.9271709245625L741.5161447895791,469.22789941600377L736.3328031062123,471.05442613738956L737.6333166332666,473.5299725059702L732.3564128256514,476.0611491300249L730.3354709418837,481.6519898051333L725.8632014028055,483.2838106323613L721.6248371743486,480.789720845291L719.6693887775551,473.7339501093741L716.3105085170341,470.3219611069855L716.5069889779559,462.77478978105063L711.3704283567134,460.66084007304926L708.4045090180362,457.8607838808719L707.1227079158317,453.9573942884661L703.1650300601202,451.9639768006575L695.4367985971943,453.6514278833605L692.6860721442886,452.17722611330726L690.0663326653306,460.3177868309611L687.1097695390781,461.9032491119629L686.6513151302605,464.1470027494015L683.8257389779559,464.31389351582294L683.5356963927856,468.3563587469144L679.643512024048,471.49019647193376L672.7854083166332,473.8544823295673L667.6488476953907,471.12859981135443L663.026878757515,467.457002950089L661.6982965931863,463.2940054988053L653.4554734468937,460.4754058881366L650.6111848697394,456.21969134439655L650.3024298597195,453.27128780429035L656.1968436873748,445.937365791006L654.7746993987977,439.892211362861L655.7383892785571,437.22195910012323L657.927742985972,435.6364968191218L658.2552104208415,437.296132774086L661.9134894789579,436.20207108310416L661.3708291583166,433.9119588994362L653.8671467935872,431.2602500551883L634.7711172344689,432.9755162656277L630.2146417835671,435.82193100403373L625.6207414829659,436.35041843103437L617.405986973948,435.4417909249631L612.3629884769539,432.26159465371524L603.4371618236473,435.4974211804367L598.6748496993988,432.99405968411946L594.2587174348697,433.17022215978665L588.4204408817635,438.2325754078948L570.2693887775552,443.9995785586705L565.5164328657314,438.1676734431751L561.2593562124248,435.99809347969995L555.9543837675351,435.451062634209L550.4903557114228,438.1769451524199L544.0065005010019,432.224507816733L532.6293461923848,431.8629111561538L531.1042835671342,428.4694655722571L525.2660070140281,426.9489052559755L524.1993987975952,424.22302273776234L520.2604333667334,421.84019346163853L516.2185495991984,422.804451223183L515.4139153306612,426.8932750005014L512.69125751503,429.34100624134595L504.08354208416824,427.8111742158178L502.5865480961924,422.8786248971481L504.9910946893787,417.90898874149593L502.8765906813628,412.49431054205377L500.64981212424846,413.7552629994576L497.197369739479,412.17907242770195L492.1917960921844,413.56055710529944L489.787249498998,411.56713961749114L479.42992234468943,412.23470268317607L476.9224574148297,410.54725160047366L443.4178607214429,408.96178931947173L446.1685871743486,422.665375584499L450.2011147294589,430.47215476931177L447.7123622244489,434.68151076682136L447.70300601202405,443.23929840052926L445.19554108216437,444.4446206024607L441.9115105210421,449.84075538341216L438.365506012024,447.031427481988L437.42052855711427,449.24736599169125L434.4920340681363,449.3771699211296L434.76336422845685,445.2049007606011L432.18104959919833,448.83013907563816L431.1612224448898,446.54002689197085L428.82216933867727,446.63274398442684L429.5238852705411,450.0076461498323L423.45170340681364,450.7586545987269L419.46595691382765,454.9772823054847L421.6365981963927,460.2528848662424L426.22114228456917,460.95753476890957L428.23272795591186,463.6370587408933L433.23830160320637,465.62120451945594L435.73641032064126,470.07162495735366Z" stroke="#e6e6e6" stroke-width="1" fill="#ffffff"></path>
          <path d="M283.4921217434869,485.7315418732065L284.7645666332665,484.2480683939068L283.54825901803605,485.10106564450393Z" stroke="#e6e6e6" stroke-width="1" fill="#ffffff"></path>
          <path d="M280.88173847695396,487.83621987196204L282.5377880761523,487.3540909911904L283.0804483967935,484.45204599731073L280.0396793587174,485.7129984547146L280.6104083166333,487.66932910554067Z" stroke="#e6e6e6" stroke-width="1" fill="#ffffff"></path>
          <path d="M225.80171593186367,482.81095346083555L230.98505761523043,482.1990206506249L225.3993987975951,482.5328021834667Z" stroke="#e6e6e6" stroke-width="1" fill="#ffffff"></path>
          <path d="M212.81529308617232,484.88781633185505L207.97813126252498,482.06921672118654L205.92912074148302,482.62551927592375L206.8273171342685,481.3274799815367L206.97701653306606,481.00297015794024L201.91530561122255,475.523389993778L200.67092935871744,482.977844227258L197.9856963927855,486.7328864717332L207.93135020040086,488.0958277308384L208.21203657314635,488.0958277308384Z" stroke="#e6e6e6" stroke-width="1" fill="#ffffff"></path>
          <path d="M220.13185120240468,486.0375082783119L214.82687875751495,484.8970880410998L214.51812374749497,488.0958277308384L228.18755010020044,488.0958277308384L230.17106713426844,483.7103092576609Z" stroke="#e6e6e6" stroke-width="1" fill="#ffffff"></path>
          <path d="M222.12472444889767,481.3923819462549L230.97570140280564,481.2254911798346L235.03629759519043,476.88633125288436L236.9823897795591,477.2293844949721L237.67474949899804,477.4611772261133L240.1822144288577,478.3141744767098L239.82667835671344,479.8347347929922L235.33569639278556,484.7301972746789L234.09132014028046,488.0958277308384L266.4731713426854,488.0958277308384L277.45736472945896,479.0373677978678L281.83607214428855,478.7592165204995L284.3154684368738,476.72871219570834L291.5103957915832,476.94196150835813L294.98155060120234,480.34467880150146L303.6641157314629,482.7738666238528L311.48590931863725,475.82935639888444L317.87620240480953,474.93927231130385L320.29946142284564,476.3207569889015L319.87843186372737,480.4744827309395L314.8260771543087,478.63868430030607L311.53269038076144,482.4957153464849L304.6652304609218,485.5275642698017L285.9902304609218,484.32224206787157L281.2372745490983,488.0958277308384L442.5009519038076,488.0958277308384L442.3606087174349,484.3778723233452L443.7359719438877,472.732605510848L435.73641032064126,470.07162495735366L433.23830160320637,465.62120451945594L428.23272795591186,463.6370587408933L426.22114228456917,460.95753476890957L421.6365981963927,460.2528848662424L419.46595691382765,454.9772823054847L423.45170340681364,450.7586545987269L429.5238852705411,450.0076461498323L428.82216933867727,446.63274398442684L431.1612224448898,446.54002689197085L432.18104959919833,448.83013907563816L434.76336422845685,445.2049007606011L434.4920340681363,449.3771699211296L437.42052855711427,449.24736599169125L438.365506012024,447.031427481988L442.4354584168336,449.72949487246336L445.19554108216437,444.4446206024607L447.70300601202405,443.23929840052926L447.7123622244489,434.68151076682136L449.9859218436874,428.89596419755645L446.1685871743486,422.665375584499L443.4178607214429,408.96178931947173L305.8628256513026,408.52601898492844L291.77236973947885,415.081117421582L280.3297219438878,423.5740030905691L260.33549599198386,432.51193080334735L232.99664328657312,431.3529671476443L223.20068887775554,428.6178129201866L214.73331663326667,430.35162254911785L208.96053356713423,429.8416785406086L192.5871618236472,438.93722531056255L173.66890030060134,440.2908948604219L166.1184368737476,439.36372393586055L161.93620991983954,442.0154327801078L166.5020415831662,441.10680527403554L173.31336422845686,447.13341628369034L177.57979709418836,448.09767404523353L184.84021793587175,456.39585382006476L196.24544088176356,455.4130526400281L208.62370991983977,446.01153946496964L216.05254258517041,445.33470469004L205.56422845691375,451.3427722812011L203.85204158316625,454.88456521302726L205.22740480961926,458.2409239599428L203.17839428857698,457.6660779867145L202.7480085170339,455.4315960585214L196.20801603206425,459.33498565092606L192.94269789579167,466.3814846775968L195.49694388777564,467.6424371350023L196.7038952905811,472.7233338016023L202.87899549098182,474.6054907784625L207.39804609218433,480.53938469565816L218.53193887775544,484.7394689839248Z" stroke="#e6e6e6" stroke-width="1" fill="#ffffff"></path>
          <path d="M822.6999999999999,145.87703947500478L818.7329659318636,145.9697565674593L817.3482464929858,148.15787994942627L813.67125501002,147.8055549980914L808.0949524048098,151.97782415862255L797.6908441883768,151.13409861727143L790.5988351703406,152.7937345722362L778.1363602204408,151.78311826446415L758.9654809619238,145.39491059423267L742.9476452905811,144.76443436552987L728.2864604208415,148.17642336791764L726.1064629258517,145.38563888498643L722.6820891783567,145.0982158983714L722.4294714428858,153.5076561841483L712.8487099198396,161.2124465672603L712.3060495991983,166.13572417668277L708.6758391783567,168.880150113387L708.1425350701403,174.53589275321522L705.9625375751502,177.10415621425304L697.017998496994,164.1793935258584L673.1315881763527,146.67440647012742L662.9426728456913,136.51261313692797L662.1661072144288,131.8303999678891L657.3757264529057,125.42364887916628L650.199511523046,125.24748640350006L649.0674098196394,125.7388869935173L649.8814003006012,127.56541371490574L643.7811497995991,131.65423749222174L642.8735971943888,135.381464608963L636.4084544088176,136.99474201770045L630.2707790581162,135.3907363182078L629.9900926853708,140.20275341668457L626.9586798597195,143.20678721226454L624.7319013026051,154.66661983985253L622.2805736472947,157.78191414637982L621.4010896793588,164.7171526621046L618.5942259519037,169.7702342009681L620.5028932865731,174.02594874470617L617.6118236472945,178.26311986995503L618.7626377755512,179.78368018623644L617.9673597194388,183.06586525918698L621.8876127254507,182.84334423729015L622.7483842685372,184.63278412169547L620.4373997995992,193.86740653033303L621.3075275551101,196.95488570912508L615.5441007014026,201.98015212025112L609.2286573146292,204.9192839511124L605.2896918837675,209.92600694374693L598.8993987975952,210.24124505809758L597.9824899799598,214.3393405446626L590.5817259519038,208.8412169620092L580.6828532064128,210.01872403620223L583.3867985971945,216.1844106845415L587.9900551102204,217.64006903610255L586.4275676352705,219.92090951052455L589.5618987975952,221.86796845210563L585.4077404809619,230.22177848240878L582.7412199398797,231.48273093981263L582.226628256513,235.9702382146941L585.0428481963928,241.6630676915052L584.2101452905812,244.41676533745485L593.9499624248497,247.5413313532261L594.1557990981964,250.86060326315928L592.9207790581162,251.59306829356382L593.9125375751503,253.5215838166526L600.9951903807614,255.88586967428577L604.4850576152303,266.5668787252404L601.9682364729459,282.79236990507485L608.8637650300601,290.33026952176465L607.4603331663327,300.6033233659111L595.8866983967936,309.94920628549596L599.4888401803606,318.34937486202807L605.7481462925851,327.32438941178793L614.9265906813628,334.2410845090202L615.3008391783567,336.91133677175867L613.1301978957916,341.61209335928805L616.9381763527053,344.6253988641156L619.0058992985972,349.1870798129596L621.5975701402805,348.83475486162604L624.5634894789579,345.9790684139749L627.4077780561122,339.1829055369355L630.6169589178356,339.8226534748841L631.5338677354711,341.7048104517445L637.2785821643286,341.278311826446L636.6236472945892,344.3101607497636L640.2912825651304,343.99492263541345L641.0210671342686,349.21489494069687L646.8967685370741,354.29579160729685L645.5962550100201,358.88528768387926L649.2358216432866,360.5356519295989L648.0008016032065,364.27215075558365L651.7994238476954,369.1768849465165L656.0003632264529,370.5861847518521L655.6448271543086,373.09881795741455L658.7136648296594,377.5770535230493L657.544138276553,381.31355234903316L660.0890280561122,382.0182022517009L661.034005511022,379.08834213008464L662.9333166332665,380.6552609925944L663.401127254509,384.6050091312288L658.9101452905812,385.1705833952104L660.0422469939879,387.5070541251071L657.9370991983967,393.0608079632349L658.3955536072143,394.7668024644281L660.3322895791583,394.69262879046266L659.4060245490982,400.153665536133L661.7450776553105,403.778903851171L657.0108341683367,404.19613076722345L655.4577029058115,406.968371831663L654.5595065130261,410.2041983583852L657.2073146292586,411.0757390274731L658.1055110220441,413.6996327439839L656.4401052104208,415.14601938630136L658.2177855711424,417.57520720865375L654.6624248496994,421.2004455236908L657.9090305611222,423.7965241124651L658.3019914829658,422.29450721467384L660.0516032064129,422.63756045676166L660.8001002004008,426.8098296172907L662.7274799599197,425.54887715988633L663.4853331663327,428.73834514038015L661.3614729458918,431.186076381224L661.9134894789579,436.20207108310416L658.2552104208415,437.296132774086L657.927742985972,435.6364968191218L655.7383892785571,437.22195910012323L654.7746993987977,439.892211362861L656.1968436873748,445.937365791006L650.3024298597195,453.27128780429035L653.4554734468937,460.4754058881366L661.6982965931863,463.2940054988053L663.644388777555,468.0318489233184L673.7771668336673,473.8544823295673L683.5356963927856,468.3563587469144L683.56376503006,464.61985992092946L686.9787825651302,463.9337534367529L687.1097695390781,461.9032491119629L690.0663326653306,460.3177868309611L692.6860721442886,452.17722611330726L695.4367985971943,453.6514278833605L703.5579909819639,452.0474221838687L707.1227079158317,453.9573942884661L708.4045090180362,457.8607838808719L711.3704283567134,460.66084007304926L716.5069889779559,462.77478978105063L716.3105085170341,470.3219611069855L719.6693887775551,473.7339501093741L721.6248371743486,480.789720845291L725.8632014028055,483.2838106323613L730.3354709418837,481.6519898051333L732.3564128256514,476.0611491300249L737.6333166332666,473.5299725059702L736.3328031062123,471.05442613738956L741.5161447895791,469.22789941600377L741.6471317635271,465.9271709245625L743.1721943887775,465.1947058941564L742.1149423847695,462.44100824820845L747.7380260521041,462.0886832968747L751.7050601202405,459.76148427622456L752.0138151302605,456.7759938991348L755.7188752505009,457.24885107066046L756.9351828657315,454.91238034076554L759.0964679358717,455.3852375122917L758.6941508016033,451.75999919725547L761.4916583166332,452.3997471352021L762.9699398797595,455.0421842702044L763.9616983967936,452.9745931084297L767.1989478957915,452.7242569587997L767.676114729459,454.2355455658352L772.1858091182365,454.1057416363952L776.4990230460922,456.7667221898895L781.925626252505,456.09915912420524L784.1617610220441,459.9469184611375L784.8915455911823,458.94557386261073L790.2807239478958,460.9853498966462L793.1717935871742,463.8132212165603L798.4486973947895,463.80394950731545L801.3959043086173,467.72588251821173L808.2259393787575,467.76296935519343L811.9964929859718,470.1179835035809L818.527129258517,470.8782636617229L820.7819764529057,465.66756306568425L820.5948522044089,461.4118485219443L822.6999999999999,459.18663830299545Z" stroke="#e6e6e6" stroke-width="1" fill="#ffffff"></path>
          <path d="M822.6999999999999,-20.095827730840714L208.20268036072153,-20.095827730840714L188.25523547094193,30.453531076280495L187.1324899799599,43.730618716007406L180.8638276553106,63.831684360512206L181.7433116232464,84.83210580184168L187.61901302605193,80.96580304641793L186.8424473947896,73.52062052218591L188.3113727454909,70.67420578377961L193.09239729458923,69.70067631299014L196.18930360721424,64.6754099018643L194.6174599198395,61.272692608720796L198.0418336673345,56.45140380099874L198.0418336673345,52.418210279154835L200.00663827655302,51.1294426940127L200.45573647294572,46.762467639326005L204.47890781563137,40.15173894719881L211.346367735471,40.91201910533857L214.65846693386771,37.898713600513496L218.18575901803615,37.07353147765389L224.2579408817634,44.52798571113083L228.77699148296594,42.38622087539301L233.17441132264534,43.656445042042954L238.72264529058106,40.772943466655924L241.90375751503004,41.3199743121472L242.3715681362726,43.109414196551626L246.9935370741482,41.76501635593692L257.0795340681363,44.935940917938794L263.1049348697394,43.33193521844698L264.0966933867735,39.62325152019839L271.1980586172345,40.95837765156689L274.3698146292585,39.76232715888304L274.38852705410824,35.6827750908102L278.7953031062124,33.18868530373796L284.68036072144287,38.34375564430286L293.31614478957914,34.30129041321307L300.8478957915832,36.37815328423202L306.5645415831664,32.80854522466741L312.29989979959913,33.52246683658112L313.73140030060114,31.686668405947394L310.77483717434876,29.016416143209103L312.8332039078157,25.845491581206566L315.2377505010019,25.91039354592641L317.42710420841684,29.507816733227145L319.4667585170341,29.832326556824714L324.201002004008,24.00042144132983L328.5329283567134,29.59126211643887L330.8813376753507,27.89453932448939L332.2567009018036,29.498545023981563L333.71627004008,26.72630395954069L336.1208166332665,28.90515563226294L339.0305986973948,29.35946938529722L340.2749749498997,27.449497280699664L342.67952154308614,29.60053382568214L344.84080661322633,27.245519677296507L347.09565380761524,30.55551987798205L348.1248371743488,28.172690601859664L352.62517535070145,27.86672419675162L356.4144413827656,27.89453932448939L355.61916332665334,29.804511429086944L356.8728957915831,30.611150133456977L364.3578657314629,30.564791587227322L365.5835295591182,28.256135985067083L369.6721943887776,30.889301410822945L374.5467810621242,29.989945613999915L376.96068386773544,27.625659756366694L378.420253006012,29.00714443396316L385.0444514028056,28.747536575086407L385.65260521042086,35.738405346283436L390.86401553106214,34.468181179633845L392.2206663326653,40.57823757249737L393.0346568136272,37.80599650805619L396.59001753507005,38.30666880731982L397.96538076152297,41.35706114912958L402.6247745490982,44.898854080956774L404.28082414829663,44.555800838868294L404.07498747494986,46.79028276706378L414.1890531062124,56.78518533384128L419.9150551102204,58.91767846033382L420.72904559118246,61.17070380701955L417.7911948897795,62.20913524253015L418.27771793587164,64.17473760259966L421.29977454909823,65.06482169018008L419.46595691382765,69.20927572297214L424.08792585170346,68.45826727407766L425.31358967935876,71.87025627646511L428.1110971943888,72.00933191515043L428.3543587174349,76.48756748078401L431.1705786573146,80.50221758413767L433.56576903807616,77.63725942724118L440.02155561122237,76.42266551606482L442.8097069138276,73.39081659274623L444.46575651302595,74.3828894820282L443.14653056112223,78.23064881896016L445.7007765531062,81.56846414738445L455.796129759519,77.79487848441602L461.70925601202396,78.41608300387277L464.70324398797584,76.79353388588943L465.6762900801603,78.72204940897949L462.4109719438877,80.36314194545405L462.270628757515,82.26384234080565L464.0483091182365,83.12611130064795L466.9393787575151,80.50221758413767L469.1474448897796,83.37644745027912L474.7705285571141,85.58311425073683L474.7611723446893,93.49188223725139L479.6544714428858,99.09199462160467L478.5691508016032,101.80860543057324L481.21695891783565,104.25633667141649L481.6660571142284,108.72530052780479L484.36064629258516,111.42336791828004L482.24614228456903,111.97967047301745L482.48004759519046,114.12143530875528L489.53463176352693,120.35202392181208L488.82355961923855,122.3268979911288L485.91377755511024,122.82757029039259L487.6353206412826,127.73230448132539L489.1136022044089,128.71510566136195L492.6034694388778,127.40779465772961L500.67788076152306,131.5800638182581L500.03230210420844,138.99743121475478L504.13032314629254,141.61205322201934L513.0935746492986,139.08087659796436L513.4771793587174,144.3472074494771L516.2653306613227,145.29292179252994L514.6279934869739,148.4638463545312L515.058379258517,152.71956089827253L522.3562249498998,156.1222781914144L524.7233466933867,158.96869292981938L524.2555360721442,162.35286680447106L519.8206913827655,161.56477151859306L519.5587174348697,163.60454755263015L524.1526177354709,168.3238475586503L528.185145290581,166.88673262557936L529.5417960921842,172.96897389070512L538.6079659318638,179.32009472395424L541.7890781563126,177.53992654879636L551.5101828657315,184.29900258885306L558.2372995991984,186.8301792129082L561.1003006012024,197.49264484537076L562.9060495991984,199.48606233317955L581.2161573146292,210.2597884765896L590.5817259519038,208.8412169620092L597.9824899799598,214.3393405446626L598.8993987975952,210.24124505809758L605.2896918837675,209.92600694374693L609.2286573146292,204.9192839511124L615.5441007014026,201.98015212025112L621.3075275551101,196.95488570912508L620.4373997995992,193.86740653033303L622.7483842685372,184.63278412169547L621.8876127254507,182.84334423729015L617.9673597194388,183.06586525918698L618.7626377755512,179.78368018623644L617.6118236472945,178.26311986995503L620.5028932865731,174.02594874470617L618.5942259519037,169.7702342009681L621.4010896793588,164.7171526621046L622.2805736472947,157.78191414637982L624.7319013026051,154.66661983985253L626.9586798597195,143.20678721226454L629.9900926853708,140.20275341668457L630.2707790581162,135.3907363182078L636.4084544088176,136.99474201770045L642.8735971943888,135.381464608963L643.7811497995991,131.65423749222174L649.8814003006012,127.56541371490574L649.0674098196394,125.7388869935173L650.199511523046,125.24748640350006L657.3757264529057,125.42364887916628L662.1661072144288,131.8303999678891L662.9426728456913,136.51261313692797L673.1315881763527,146.67440647012742L697.017998496994,164.1793935258584L705.9625375751502,177.10415621425304L708.1425350701403,174.53589275321522L708.6758391783567,168.880150113387L712.3060495991983,166.13572417668277L712.8487099198396,161.2124465672603L722.4294714428858,153.5076561841483L722.6820891783567,145.0982158983714L726.1064629258517,145.38563888498643L728.2864604208415,148.17642336791764L742.9476452905811,144.76443436552987L758.9654809619238,145.39491059423267L778.1363602204408,151.78311826446415L790.5988351703406,152.7937345722362L797.6908441883768,151.13409861727143L808.0949524048098,151.97782415862255L813.67125501002,147.8055549980914L817.3482464929858,148.15787994942627L818.7329659318636,145.9697565674593L822.6999999999999,145.87703947500478Z" stroke="#e6e6e6" stroke-width="1" fill="#ffffff"></path>
          <path d="M170.68426853707422,203.12057235746218L169.50538577154293,204.0941018282523L172.77070390781552,208.17365389632482L173.2572269539079,211.70617511890592L172.90169088176344,217.7884163840331L170.824611723447,221.80306648738681L172.4245240480962,223.81502739368628L184.21335170340694,226.51309478416198L195.38466933867738,225.95679222942445L199.48269038076162,228.71976158461888L210.37332164328657,228.3118063778104L217.03494488977967,231.77015392642767L230.56402805611222,233.8470167974481L239.44307364729465,231.90922956511196L248.25662575150298,226.0216941941435L248.19113226452902,214.46914447410145L258.2490606212424,203.95502618956752L258.94142034068136,201.00662264946095L250.61439128256507,197.0568745108278L246.8719063126253,186.40368058760933L240.2102830661322,186.26460494892518L236.3929483967936,188.48054345862784L219.53305360721436,191.45676212647217L211.963877755511,190.55740632964734L209.8213051102204,192.46737843424407L203.992384769539,188.45272833089086L188.17102955911815,185.0685544562399L166.59560370741482,193.22765859238527L166.86693386773547,195.02637018603548L169.57087925851704,195.50849906680872L169.3650425851702,198.90194465070553L171.51697144288556,202.49936783800493Z" stroke="#b07345" stroke-width="1" fill="#c3804d"></path>
          <path d="M91.4839303607213,219.48513917598123L91.15646292585167,220.6441028316852L91.61491733466923,219.72620361636746Z" stroke="#e60000" stroke-width="1" fill="#ff0000"></path>
          <path d="M95.70358216432865,218.4003491942431L94.63697394789561,217.14866844608534L95.91877505010002,213.99628730257447L101.8225450901804,212.27174938288937L105.90185370741467,213.3379959461355L116.19368737474962,218.71558730859513L120.67531312625248,223.24945312970425L122.69625501001995,228.58068594593422L124.12775551102195,209.66639908486948L121.42381012024038,206.96833169439506L121.97582665330654,203.36163679784758L120.16072144288562,197.04760280158186L100.04486472945877,206.69945212627104L85.49595440881748,211.11278572718663L91.11903807615235,217.51953681590942L93.64521543086187,218.3910774849998L94.02882014028047,220.7553633426314L95.54452655310625,218.54869654217435Z" stroke="#e60000" stroke-width="1" fill="#ff0000"></path>
          <path d="M168.0271042084168,314.0102149350765L168.3732840681361,315.8645567842018L168.2142284569137,312.26713359690166Z" stroke="#95ae69" stroke-width="1" fill="#a5c175"></path>
          <path d="M166.3523421843686,317.0884224046231L167.7183491983968,317.3943888097303L165.63191382765524,314.99301611511356L165.36058366733454,315.96654558590353Z" stroke="#95ae69" stroke-width="1" fill="#a5c175"></path>
          <path d="M166.66109719438862,304.20074655321116L172.26546843687382,299.31455578076975L168.19551603206403,300.70531216761276L166.05294338677345,303.66298741696545L167.49380010020027,303.0881414437385Z" stroke="#95ae69" stroke-width="1" fill="#a5c175"></path>
          <path d="M176.66288827655322,322.07660197876675L224.35150300601202,322.1507756527318L223.1539078156314,320.3798791868184L217.1565756513024,318.4420919544837L214.96722194388772,307.30676915049463L209.86808617234453,304.8868530373872L207.75358216432878,302.01262317124514L212.26327655310615,290.7660398563089L210.9066257515031,284.7857873928829L204.2824273547093,282.25461076882846L208.93246492985975,278.23996066547534L209.80259268537074,274.81869995384096L202.02758016032047,268.1801561339776L195.05720190380774,267.5496799052749L195.46887525050084,260.8740492484291L200.2218311623247,258.21306869493515L205.56422845691375,250.80497300768585L219.7950275551102,248.524132533263L217.32498747494998,257.7958417788833L218.54129509018028,263.92444159023825L223.36910070140277,265.7231531838887L224.81931362725442,269.04242509382107L229.26351452905814,271.3603524052251L236.41166082164327,273.4001284392614L243.55980711422842,271.5643300086291L248.51859969939883,255.47791446747883L248.30340681362728,246.1413032571401L256.1813376753506,234.85763310521935L261.4769539078155,234.50530815388672L270.45891783567123,226.81906118926653L280.2735846693387,226.54090991189847L284.6429358717434,225.15942523430098L288.77838176352697,220.7646350518768L293.5594063126252,219.68911677938522L279.33796342685366,203.00931184651515L271.226127254509,203.63051636597223L264.28381763527057,200.31124445603857L258.94142034068136,201.00662264946095L258.2490606212424,203.95502618956752L248.19113226452902,214.46914447410145L248.25662575150298,226.0216941941435L239.44307364729465,231.90922956511196L226.19467685370742,233.70794115876234L217.03494488977967,231.77015392642767L210.37332164328657,228.3118063778104L199.48269038076162,228.71976158461888L195.38466933867738,225.95679222942445L181.022883266533,225.6137389873368L178.0382515030059,236.52654076943116L164.30333166332667,244.55584097613786L158.75509769539073,260.883320957675L161.11286322645304,264.3416685062918L156.01372745490988,271.1934616388047L158.23114979959905,277.00682333580806L155.84531563126262,279.8254229464766L156.1821392785571,297.5436593148565L156.8090055110219,298.915872283208L157.2674599198398,286.241445744446L161.15028807615235,283.15396656565434L158.61475450901798,287.6414738405345L159.9339804609217,295.3648076421369L158.46505511022042,296.93172650464584L163.58290330661325,304.3212787734046L167.95225450901816,299.1662084328392L176.475764028056,295.79130626743427L180.7983341683368,296.25489172971515L170.67491232464943,303.59808545224655L168.42006513026055,310.2644443998483L170.6187750501001,315.9109153304298L176.68160070140289,321.8911677938549Z" stroke="#95ae69" stroke-width="1" fill="#a5c175"></path>
          <path d="M258.5952404809619,239.28023841538035L260.22322144288574,251.07385257580884L258.8010771543086,256.08984727768916L260.88751252505,258.8250015051476L261.99154559118244,264.6661783298879L269.93496993987975,274.25312568985976L267.0906813627254,282.4215015352504L277.5322144288578,284.6652551726905L280.1051728456914,289.0600453551136L269.03677354709407,298.9900459571736L274.51951402805605,302.51329547050796L282.18225200400803,301.9291777880342L283.6043962925852,303.20867366392997L283.9318637274548,308.1041361456175L292.37116733466934,304.1265728792465L301.8396543086171,306.31469626121265L315.18161322645295,299.41654458247115L324.3974824649299,302.25368761163173L330.95618737474956,302.0867968452106L338.37566382765533,305.73057857873766L341.2293086172345,302.25368761163173L349.6218311623247,301.2894298500868L352.81229959919835,293.7515302333985L361.35452154308615,286.0652832687785L362.6643912825651,276.311445142387L361.1393286573146,271.05438600012L361.4855085170341,259.08460936402514L356.9758141282565,253.82755022175783L358.02370991983963,229.72110618314576L337.75815380761514,222.80441108591356L331.788890280561,216.36057316020785L330.40417084168337,216.23076923076914L327.1482089178356,223.35144193140422L319.79422595190374,224.66802464428278L293.5594063126252,219.68911677938522L288.77838176352697,220.7646350518768L284.6429358717434,225.15942523430098L270.45891783567123,226.81906118926653L261.8512024048096,233.15163860402578L259.18468186372735,238.0285576672221Z" stroke="#91b66e" stroke-width="1" fill="#a1ca7a"></path>
          <path d="M445.6165706412826,349.9380882618547L447.0012900801603,346.1181440526596L443.8014654308617,346.2757631098352L446.1405185370741,342.33528668044687L437.1772670340681,342.5392642838507L439.13271543086177,340.21206526319975L439.0204408817635,337.0689558289351L442.03314128256505,334.0649220333538L437.57022795591183,332.0993196732822L434.1739228456913,333.9258463946698L435.2873121242485,326.7031848923311L432.6956412825651,326.48066387043616L431.38577154308615,330.1800758594382L429.3180485971943,330.05027192999984L434.98791332665337,336.5404684019345L434.201991482966,341.34321379116557L431.0302354709419,345.88635132151944L426.6608842685371,348.15792008669666L405.53455661322647,351.91296233117225L402.9054609218437,357.05876096249125L393.82057865731457,357.63360693572014L390.0219564128256,355.6865479941397L380.0669463927855,355.964699271508L372.7971693386773,350.0678921912939L365.0221568136272,348.60296213048537L361.2048221442885,345.33932047602764L354.4683491983967,346.3313933653085L347.53539579158314,342.5578077023419L344.26072144288565,338.8305805856031L329.21593186372735,335.1218968873547L323.0408316633266,331.9138854883705L312.2811873747495,322.0117000140474L304.00093937875755,327.54691043368376L300.5578532064127,338.8398522948484L294.91605711422835,343.84657528748403L289.57365981963915,345.33004876678154L291.20164078156307,350.92088944189123L288.70353206412824,354.4441389552267L290.36893787575156,358.31971341989623L298.6304734468937,363.0946436813898L301.8864353707414,374.65646511067905L306.7423096192384,377.09492464227634L307.22883266533063,383.3718718015616L312.3279684368738,389.2686788817749L308.47320891783556,408.6372794958743L466.0224699398797,409.85187340705147L464.93714929859726,404.99349776234703L466.2189504008017,400.218567500853L464.3289954909819,395.7032450982356L464.66581913827656,392.1429087479167L466.86452905811626,392.49523369924975L465.07749248497,390.33492544502286L465.6107965931863,388.3507796664592L462.7197269539077,386.9043930241424L462.82264529058114,383.9096309378068L461.0543211422845,383.3255132553332L462.84135771543083,381.4155411507348L461.6718311623247,377.7810311264526L459.76316382765526,377.1320114792587L460.85784068136263,374.9253446788029L458.97724198396793,374.47103092576555L457.65801603206404,371.68951815208027L456.114240981964,372.25509241606244L456.07681613226447,369.7053723735176L452.315618737475,365.0602460414615L452.69922344689377,356.2521222581227L451.83845190380765,354.8057356158052L449.20935621242484,354.8891809990163L449.20935621242484,351.86660378494446L445.73820140280554,350.93016115113664Z" stroke="#93b06b" stroke-width="1" fill="#a3c477"></path>
          <path d="M558.882878256513,358.55150615103605L557.563652304609,360.8694334624401L551.7908692384768,360.8879768809326L547.4589428857715,358.4680607678271L546.5607464929859,360.20187039675653L540.2920841683366,361.9356800256879L538.7389529058115,368.26825744044703L532.0773296593186,371.49481225792124L526.3419714428859,378.68038692327747L518.9599198396793,373.52531658271323L517.3412950901802,373.95181520801174L515.8349448897795,370.8736077384653L504.36422845691374,372.5981456581511L501.5012274549098,375.4816472335371L493.0338552104209,372.21800557908006L487.13944138276554,376.24192739167967L495.33548346693385,385.68979911296634L495.2980586172344,387.52559754359993L492.5192635270541,388.15607377229964L495.457114228457,392.1150936201806L495.2138527054108,394.26613016516484L500.1539328657314,395.5456260410597L499.2838051102204,400.45036023199344L501.2298972945891,407.92335788396196L497.197369739479,412.17907242770195L500.64981212424846,413.7552629994576L502.8765906813628,412.49431054205377L504.44843436873754,414.36719580966843L504.9910946893787,417.90898874149593L502.5865480961924,422.8786248971481L504.08354208416824,427.8111742158178L512.69125751503,429.34100624134595L515.4139153306612,426.8932750005014L516.2185495991984,422.804451223183L520.2604333667334,421.84019346163853L524.1993987975952,424.22302273776234L525.2660070140281,426.9489052559755L531.1042835671342,428.4694655722571L532.6293461923848,431.8629111561538L544.0065005010019,432.224507816733L550.4903557114228,438.1769451524199L555.9543837675351,435.451062634209L561.2593562124248,435.99809347969995L565.5164328657314,438.1676734431751L570.2693887775552,443.9995785586705L588.4204408817635,438.2325754078948L594.2587174348697,433.17022215978665L598.6748496993988,432.99405968411946L603.4371618236473,435.4974211804367L612.3629884769539,432.26159465371524L617.405986973948,435.4417909249631L625.6207414829659,436.35041843103437L630.2146417835671,435.82193100403373L634.7711172344689,432.9755162656277L647.1587424849699,431.1304461257504L653.8671467935872,431.2602500551883L661.3708291583166,433.9119588994362L661.5205285571142,430.7503060466792L663.4853331663327,428.73834514038015L662.9239604208417,426.00319091292164L661.1462800601203,427.2919584980635L660.0516032064129,422.63756045676166L658.3019914829658,422.29450721467384L657.9090305611222,423.7965241124651L654.8401928857716,421.76601978767394L658.2177855711424,417.57520720865375L656.4401052104208,415.14601938630136L658.1055110220441,413.6996327439839L657.2073146292586,411.0757390274731L654.5595065130261,410.2041983583852L657.0108341683367,404.19613076722345L661.7450776553105,403.778903851171L659.4060245490982,400.153665536133L660.3322895791583,394.69262879046266L658.3955536072143,394.7668024644281L657.9370991983967,393.0608079632349L660.0422469939879,387.5070541251071L658.9101452905812,385.1705833952104L663.401127254509,384.6050091312288L662.9333166332665,380.6552609925944L661.034005511022,379.08834213008464L660.0890280561122,382.0182022517009L657.544138276553,381.31355234903316L658.7136648296594,377.5770535230493L655.6448271543086,373.09881795741455L656.0003632264529,370.5861847518521L651.7994238476954,369.1768849465165L648.0008016032065,364.27215075558365L649.2358216432866,360.5356519295989L645.5962550100201,358.88528768387926L646.8967685370741,354.29579160729685L641.0210671342686,349.21489494069687L640.2912825651304,343.99492263541345L636.6236472945892,344.3101607497636L637.2785821643286,341.278311826446L631.5338677354711,341.7048104517445L630.6169589178356,339.8226534748841L627.4077780561122,339.1829055369355L624.5634894789579,345.9790684139749L620.8490731462925,349.2519817776781L618.4164579158318,348.67713580445064L616.9381763527053,344.6253988641156L613.420240480962,341.8717012181665L600.1999123246492,349.44668767183714L599.9566508016031,344.43069296995657L596.0363977955911,344.74593108430787L584.3130636272546,336.4013927632499L580.7015656312625,335.40004816472356L578.6244864729458,340.93525858435805L582.6850826653307,348.34335427160875L574.7697269539078,349.44668767183714L572.2435495991983,354.84282245278877L566.7982339679359,352.0427662606119L563.5984093186372,352.70105761704946L559.2009894789578,357.5779766802459Z" stroke="#82d682" stroke-width="1" fill="#90ee90"></path>
          <path d="M248.30340681362728,246.1413032571401L248.51859969939883,255.47791446747883L242.30607464929864,272.2597082020503L236.41166082164327,273.4001284392614L229.26351452905814,271.3603524052251L224.81931362725442,269.04242509382107L223.36910070140277,265.7231531838887L218.54129509018028,263.92444159023825L217.32498747494998,257.7958417788833L219.7950275551102,248.524132533263L205.56422845691375,250.80497300768585L200.2218311623247,258.21306869493515L195.46887525050084,260.8740492484291L195.05720190380774,267.5496799052749L202.02758016032047,268.1801561339776L209.80259268537074,274.81869995384096L208.93246492985975,278.23996066547534L204.2824273547093,282.25461076882846L210.9066257515031,284.7857873928829L212.26327655310615,290.7660398563089L207.75358216432878,302.01262317124514L209.86808617234453,304.8868530373872L214.96722194388772,307.30676915049463L217.1565756513024,318.4420919544837L223.1539078156314,320.3798791868184L224.35150300601202,322.2342210359429L277.6164203406814,322.2249493266968L279.7870616232464,313.2406630676925L283.9318637274548,308.1041361456175L283.74473947895797,303.9318669850893L282.18225200400803,301.9291777880342L274.51951402805605,302.51329547050796L269.03677354709407,298.9900459571736L280.1051728456914,289.0600453551136L277.5322144288578,284.6652551726905L267.0906813627254,282.4215015352504L269.93496993987975,274.25312568985976L261.99154559118244,264.6661783298879L260.88751252505,258.8250015051476L258.8010771543086,256.08984727768916L260.22322144288574,251.07385257580884L258.5952404809619,239.28023841538035L261.4769539078155,234.50530815388672L256.1813376753506,234.85763310521935L249.41679609218428,243.64721347006704Z" stroke="#9e9b5e" stroke-width="1" fill="#afac68"></path>
          <path d="M391.94933617234466,134.38012001043526L392.78203907815634,133.128439262277L390.564616733467,127.12037167111421L371.5808617234468,116.50426458488047L365.6209544088176,108.02992233438394L353.23332915831656,97.3674567019204L344.7378882765531,96.64426338076143L334.1840806613226,91.70244235284692L287.87082915831667,91.31303056453046L284.37160571142294,91.59118184189906L281.7331538076153,97.44163037588582L269.3455285571142,97.99793293062243L245.06615731462918,73.74314154408096L238.95655060120242,76.44120893455538L235.84093186372743,84.09036906219282L230.56402805611222,84.2572598286133L215.9589804609218,90.17261032731888L210.0645666332666,89.5143189708801L209.36285070140283,91.00706415942473L213.18018537074158,93.63095787593532L212.48782565130267,95.78199442091945L204.58182615230447,101.6231712456596L202.53281563126254,104.84045435388984L194.83265280561122,107.67759738304989L179.85335671342685,107.00076260811954L171.74152054108214,126.02630998013213L161.30934368737476,141.76967227919462L166.3149173346693,144.7551626562844L163.1244488977957,147.24925244335634L159.30711422845695,157.34614381183604L161.2532064128258,158.7276284894332L162.70341933867743,163.71580806357684L168.81302605210433,164.81914146380652L170.824611723447,170.5583294868441L173.9495866733468,172.15306347709182L186.57111723446891,154.23084950530807L196.29222194388768,155.75140982158885L197.60209168336658,158.7276284894332L196.84423847695385,162.677376628067L200.03470691382748,163.85488370226014L201.90594939879773,160.80449136045286L205.44259769539065,170.6325031608104L204.8250876753507,173.19149491260114L209.5406187374749,179.90421240642954L211.963877755511,190.55740632964734L219.53305360721436,191.45676212647217L236.3929483967936,188.48054345862784L240.2102830661322,186.26460494892518L246.8719063126253,186.40368058760933L251.44709418837675,197.8264263782133L257.9683742484969,200.93244897549548L264.28381763527057,200.31124445603857L271.226127254509,203.63051636597223L279.33796342685366,203.00931184651515L293.5594063126252,219.68911677938522L319.79422595190374,224.66802464428278L327.1482089178356,223.35144193140422L330.8906938877755,216.01751991811886L337.75815380761514,222.80441108591356L357.53718687374754,229.0257279897241L358.2295465931863,232.51189066607765L369.3260145290581,230.15687651769022L376.0624874749499,223.79648397519492L385.147369739479,220.6162877039472L386.1578406813627,216.09169359208434L389.9003256513025,210.55648317244925L380.35698897795595,195.47141222982617L379.2529559118236,188.3785546569264L364.99408817635265,177.82734953541123L363.57194388777555,175.12928214493496L369.9528807615231,151.84802022918467L377.1665205410822,150.11421060025296L377.7559619238476,145.23729153705685L376.2028306613226,142.02000842882595L390.63011022044094,139.28485420136752L391.98676102204416,135.24238897027823Z" stroke="#9aa363" stroke-width="1" fill="#abb56e"></path>
          <path d="M391.98676102204416,135.24238897027823L390.63011022044094,139.28485420136752L376.2028306613226,142.02000842882595L377.7559619238476,145.23729153705685L377.1665205410822,150.11421060025296L369.9528807615231,151.84802022918467L363.57194388777555,175.12928214493496L364.99408817635265,177.82734953541123L379.8798221442886,189.24082361676923L380.35698897795595,195.47141222982617L390.24650551102195,209.5180517369412L385.147369739479,220.6162877039472L388.82436122244485,224.83491541070453L388.61852454909814,226.97668024644173L391.32246993987974,228.49724056272436L432.3307489979959,244.13861406008544L458.27552605210417,244.13861406008544L463.9641032064128,243.16508458929465L478.32588927855704,230.71317907242744L486.79326152304606,225.45611993016115L516.2840430861725,230.15687651769022L533.8362975951903,226.42037769170565L542.8556863727455,215.3499568524345L548.4787700400801,196.60256075779168L543.5480460921843,185.46723795380177L537.6536322645289,178.23530474221837L529.5417960921842,172.96897389070512L528.185145290581,166.88673262557936L524.1526177354709,168.3238475586503L519.5587174348697,163.60454755263015L519.8206913827655,161.56477151859306L524.2555360721442,162.35286680447106L524.7233466933867,158.96869292981938L522.3562249498998,156.1222781914144L515.058379258517,152.71956089827253L514.6279934869739,148.4638463545312L516.2653306613227,145.29292179252994L513.4771793587174,144.3472074494771L513.0935746492986,139.08087659796436L504.13032314629254,141.61205322201934L500.03230210420844,138.99743121475478L500.67788076152306,131.5800638182581L492.6034694388778,127.40779465772961L489.1136022044089,128.71510566136195L487.6353206412826,127.73230448132539L485.91377755511024,122.82757029039259L488.82355961923855,122.3268979911288L489.53463176352693,120.35202392181208L482.48004759519046,114.12143530875528L482.24614228456903,111.97967047301745L484.36064629258516,111.42336791828004L481.6660571142284,108.72530052780479L481.21695891783565,104.25633667141649L478.5691508016032,101.80860543057324L479.6544714428858,99.09199462160467L474.7611723446893,93.49188223725139L475.0512149298596,86.03742800377213L469.1474448897796,83.37644745027912L466.9393787575151,80.50221758413767L464.0483091182365,83.12611130064795L462.270628757515,82.26384234080565L462.4109719438877,80.36314194545405L465.6762900801603,78.72204940897949L464.70324398797584,76.79353388588943L461.70925601202396,78.41608300387277L455.796129759519,77.79487848441602L446.3931362725451,81.6982680768225L443.5488476953908,79.00947239559103L440.985245490982,80.13134921431245L439.61923847695397,85.04535511449046L429.5519539078156,90.51566356940705L428.41049599198385,94.0110979550052L395.28014779559123,129.085974031187L391.94933617234466,134.38012001043526Z" stroke="#91b66e" stroke-width="1" fill="#a1ca7a"></path>
          <path d="M229.00154058116246,397.04764293884995L229.4132139278557,398.985430171185L226.56892535070122,402.0265508037478L226.22274549098194,409.712797768367L232.0516658316633,414.20957675249247L232.98728707414827,421.73820465993765L238.68522044088175,430.9450119408363L258.03386773547084,432.93842942864524L280.3297219438878,423.5740030905691L300.6233466933867,410.54725160047366L308.47320891783556,408.6372794958743L312.3279684368738,389.2686788817749L307.22883266533063,383.3718718015616L306.7423096192384,377.09492464227634L301.8864353707414,374.65646511067905L298.6304734468937,363.0946436813898L288.77838176352697,355.9739709807534L291.20164078156307,350.92088944189123L289.57365981963915,345.33004876678154L274.8750501002003,341.3153986634289L267.6520541082164,345.9790684139749L259.8583291583167,344.0412811816407L247.04967434869735,345.69164542736166L246.62864478957908,363.0297417166703L238.4606713426854,362.99265487968773L234.7181863727454,367.5914226655157L237.8618737474949,370.69744526279834L230.04008016032068,383.4738606032634L229.22608967935864,385.97722209958073L230.85407064128253,391.61442132091724L228.55244238476936,395.9813963756047Z" stroke="#8cc074" stroke-width="1" fill="#9cd581"></path>
          <path d="M186.8424473947896,73.52062052218591L187.61901302605193,80.96580304641793L181.7433116232464,84.83210580184168L179.85335671342685,107.00076260811954L194.83265280561122,107.67759738304989L202.53281563126254,104.84045435388984L204.58182615230447,101.6231712456596L212.48782565130267,95.78199442091945L213.18018537074158,93.63095787593532L209.36285070140283,91.00706415942473L210.0645666332666,89.5143189708801L215.9589804609218,90.17261032731888L230.56402805611222,84.2572598286133L235.84093186372743,84.09036906219282L238.95655060120242,76.44120893455538L245.06615731462918,73.74314154408096L269.3455285571142,97.99793293062243L281.7331538076153,97.44163037588582L284.37160571142294,91.59118184189906L287.87082915831667,91.31303056453046L334.1840806613226,91.70244235284692L344.7378882765531,96.64426338076143L353.23332915831656,97.3674567019204L365.6209544088176,108.02992233438394L371.5808617234468,116.50426458488047L390.564616733467,127.12037167111421L392.78203907815634,133.128439262277L428.41049599198385,94.0110979550052L429.5519539078156,90.51566356940705L439.61923847695397,85.04535511449046L439.8905686372745,81.54992072889226L443.5488476953908,79.00947239559103L444.4938251503006,75.27297356960766L442.8097069138276,73.39081659274623L440.02155561122237,76.42266551606482L433.56576903807616,77.63725942724118L430.6840556112224,80.13134921431245L428.3543587174349,76.48756748078401L428.1110971943888,72.00933191515043L425.31358967935876,71.87025627646511L424.08792585170346,68.45826727407766L419.46595691382765,69.20927572297214L421.29977454909823,65.06482169018008L418.27771793587164,64.17473760259966L417.7911948897795,62.20913524253015L420.72904559118246,61.17070380701955L419.9150551102204,58.91767846033382L414.1890531062124,56.78518533384128L404.07498747494986,46.79028276706378L404.28082414829663,44.555800838868294L402.6247745490982,44.898854080956774L397.96538076152297,41.35706114912958L396.59001753507005,38.30666880731982L393.0346568136272,37.80599650805619L392.2206663326653,40.57823757249737L390.86401553106214,34.468181179633845L385.65260521042086,35.738405346283436L385.0444514028056,28.747536575086407L378.420253006012,29.00714443396316L376.96068386773544,27.625659756366694L374.5467810621242,29.989945613999915L369.6721943887776,30.889301410822945L365.5835295591182,28.256135985067083L364.3578657314629,30.564791587227322L356.8728957915831,30.611150133456977L355.61916332665334,29.804511429086944L356.4144413827656,27.89453932448939L352.62517535070145,27.86672419675162L348.1248371743488,28.172690601859664L347.09565380761524,30.55551987798205L344.84080661322633,27.245519677296507L342.67952154308614,29.60053382568214L340.2749749498997,27.449497280699664L339.0305986973948,29.35946938529722L336.1208166332665,28.90515563226294L333.71627004008,26.72630395954069L332.2567009018036,29.498545023981563L330.8813376753507,27.89453932448939L328.5329283567134,29.59126211643887L324.201002004008,24.00042144132983L319.4667585170341,29.832326556824714L317.42710420841684,29.507816733227145L315.2377505010019,25.91039354592641L312.8332039078157,25.845491581206566L310.77483717434876,29.016416143209103L313.73140030060114,31.686668405947394L312.29989979959913,33.52246683658112L306.5645415831664,32.80854522466741L300.8478957915832,36.37815328423202L293.31614478957914,34.30129041321307L284.68036072144287,38.34375564430286L278.7953031062124,33.18868530373796L274.38852705410824,35.6827750908102L274.3698146292585,39.76232715888304L271.1980586172345,40.95837765156689L264.0966933867735,39.62325152019839L263.1049348697394,43.33193521844698L257.0795340681363,44.935940917938794L246.9935370741482,41.76501635593692L242.3715681362726,43.109414196551626L241.90375751503004,41.3199743121472L238.72264529058106,40.772943466655924L233.17441132264534,43.656445042042954L228.77699148296594,42.38622087539301L224.2579408817634,44.52798571113083L218.18575901803615,37.07353147765389L214.65846693386771,37.898713600513496L211.346367735471,40.91201910533857L204.47890781563137,40.15173894719881L200.45573647294572,46.762467639326005L200.00663827655302,51.1294426940127L198.0418336673345,52.418210279154835L198.0418336673345,56.45140380099874L194.6174599198395,61.272692608720796L196.18930360721424,64.6754099018643L193.09239729458923,69.70067631299014L188.64819639278568,70.34969596018205L187.19798346693372,72.65835156234198Z" stroke="#9aa161" stroke-width="1" fill="#abb36c"></path>
          <path d="M462.2238476953908,380.9983142346827L461.0543211422845,383.3255132553332L462.82264529058114,383.9096309378068L462.02736723446895,386.0235806458084L465.6107965931863,388.3507796664592L465.07749248497,390.33492544502286L466.8364604208416,392.16145216640984L464.66581913827656,392.1429087479167L464.3289954909819,395.7032450982356L466.2189504008017,400.218567500853L464.93714929859726,404.99349776234703L466.0224699398797,409.85187340705147L476.9224574148297,410.54725160047366L479.42992234468943,412.23470268317607L489.787249498998,411.56713961749114L492.1917960921844,413.56055710529944L496.1775425851704,412.88372233036927L501.2298972945891,407.92335788396196L499.2838051102204,400.45036023199344L500.1539328657314,395.5456260410597L495.2138527054108,394.26613016516484L495.457114228457,392.1150936201806L492.5192635270541,388.15607377229964L495.2980586172344,387.52559754359993L495.33548346693385,385.68979911296634L487.13944138276554,376.890947038872L491.1064754509019,372.8670252262736L493.38939128256516,372.1994621605887L501.5012274549098,375.4816472335371L504.36422845691374,372.5981456581511L515.8349448897795,370.8736077384653L517.3412950901802,373.95181520801174L518.9599198396793,373.52531658271323L526.3419714428859,378.68038692327747L532.0773296593186,371.49481225792124L538.7389529058115,368.26825744044703L540.2920841683366,361.9356800256879L546.5607464929859,360.20187039675653L547.4589428857715,358.4680607678271L551.1546467935873,360.82307491621407L557.563652304609,360.8694334624401L559.7904308617235,355.81635192357874L563.5984093186372,352.70105761704946L566.7982339679359,352.0427662606119L572.2435495991983,354.84282245278877L574.7697269539078,349.44668767183714L582.6850826653307,348.34335427160875L578.6244864729458,340.93525858435805L580.7015656312625,335.40004816472356L584.3130636272546,336.4013927632499L596.0363977955911,344.74593108430787L599.9566508016031,344.43069296995657L600.1999123246492,349.44668767183714L613.420240480962,341.8717012181665L614.9265906813628,334.2410845090202L605.7481462925851,327.32438941178793L600.3496117234467,320.0090108169937L595.8866983967936,309.94920628549596L607.4603331663327,300.6033233659111L608.8637650300601,290.33026952176465L601.9682364729459,282.79236990507485L604.4850576152303,266.5668787252404L600.9951903807614,255.88586967428577L593.9125375751503,253.5215838166526L592.9207790581162,251.59306829356382L594.1557990981964,250.86060326315928L593.9499624248497,247.5413313532261L584.2101452905812,244.41676533745485L585.0428481963928,241.6630676915052L582.226628256513,235.9702382146941L582.7412199398797,231.48273093981263L585.4077404809619,230.22177848240878L586.9234468937875,225.06670814184582L589.3934869739479,223.40707218687908L589.1876503006011,220.79245017961424L586.4275676352705,219.92090951052455L588.139754509018,217.95530715045425L583.3867985971945,216.1844106845415L580.6828532064128,210.01872403620223L562.9060495991984,199.48606233317955L561.1003006012024,197.49264484537076L558.2372995991984,186.8301792129082L551.5101828657315,184.29900258885306L541.7890781563126,177.53992654879636L538.8512274549098,179.39426839792048L543.5480460921843,185.46723795380177L548.4787700400801,196.60256075779168L542.8556863727455,215.3499568524345L533.8362975951903,226.42037769170565L515.3109969939879,230.2310501916557L486.79326152304606,225.45611993016115L478.32588927855704,230.71317907242744L463.9641032064128,243.16508458929465L458.27552605210417,244.13861406008544L432.3307489979959,244.13861406008544L391.32246993987974,228.49724056272436L388.61852454909814,226.97668024644173L388.82436122244485,224.83491541070453L385.147369739479,220.6162877039472L376.0624874749499,223.79648397519492L369.3260145290581,230.15687651769022L358.2295465931863,232.51189066607765L356.9758141282565,253.82755022175783L361.4855085170341,259.08460936402514L362.4585546092185,281.64267795861804L360.03529559118243,287.9381685363938L351.7082665330662,295.33699251439884L349.6218311623247,301.2894298500868L341.2293086172345,302.25368761163173L339.07737975951903,304.54379979529955L338.37566382765533,305.73057857873766L341.33222695390776,309.4578056954793L342.3707665330661,315.1042766260606L349.87444889779556,319.74940295811643L358.5102329659318,315.85528507495553L363.20705160320637,316.1705231893077L369.41022044088174,320.26861867587195L374.378369238477,328.9376668205255L385.0163827655311,334.63976800658173L393.06272545090184,332.841056412932L404.4960170340681,326.4343053242085L412.91660821643285,325.8409159324892L419.51273797595195,323.54153203957475L426.2117860721443,326.7310000200685L429.3180485971943,330.05027192999984L431.38577154308615,330.1800758594382L432.6956412825651,326.48066387043616L435.2873121242485,326.7031848923311L434.1739228456913,333.9258463946698L437.57022795591183,332.0993196732822L442.03314128256505,334.0649220333538L439.0204408817635,337.0689558289351L439.13271543086177,340.21206526319975L437.1772670340681,342.5392642838507L446.1405185370741,342.33528668044687L443.8014654308617,346.2757631098352L447.0012900801603,346.1181440526596L445.73820140280554,350.93016115113664L449.20935621242484,351.86660378494446L449.20935621242484,354.8891809990163L451.83845190380765,354.8057356158052L452.69922344689377,356.2521222581227L452.315618737475,365.0602460414615L456.07681613226447,369.7053723735176L456.114240981964,372.25509241606244L457.65801603206404,371.68951815208027L458.97724198396793,374.47103092576555L460.85784068136263,374.9253446788029L459.76316382765526,377.1320114792587L461.6718311623247,377.7810311264526L461.88702404809624,380.36783800598Z" stroke="#95ae68" stroke-width="1" fill="#a5c174"></path>
          <path d="M162.01105961923852,160.1832868409964L159.30711422845695,157.34614381183604L159.5129509018035,154.92622769872892L163.1244488977957,147.24925244335634L166.3149173346693,144.7551626562844L161.30934368737476,141.76967227919462L145.0950275551101,167.38740492484268L120.16072144288562,197.04760280158186L121.97582665330654,203.36163679784758L121.42381012024038,206.96833169439506L124.12775551102195,209.66639908486948L122.69625501001995,228.58068594593422L125.69024298597186,231.1025908607431L129.8069764529058,239.5027594372755L134.4570140280562,241.28292761243418L140.9034443887776,249.27514098215892L141.16541833667344,255.82096770956608L143.76644539078157,256.8686708543207L147.33116232464928,265.4820887435026L152.29931112224455,268.24505809869714L155.84531563126262,279.8254229464766L158.23114979959905,277.00682333580806L156.01372745490988,271.1934616388047L161.11286322645304,264.3416685062918L158.75509769539073,260.883320957675L161.49646793587164,255.69116378012805L163.08702404809603,246.35455256978838L164.99569138276559,243.82337594573326L169.54281062124258,242.4789781051192L178.0382515030059,236.52654076943116L181.022883266533,227.0323105019163L181.022883266533,225.6137389873368L173.87473697394788,224.43623191314268L170.824611723447,221.80306648738681L172.90169088176344,217.7884163840331L172.77070390781552,208.17365389632482L169.50538577154293,204.0941018282523L171.51697144288556,202.49936783800493L169.3650425851702,198.90194465070553L169.57087925851704,195.50849906680872L166.86693386773547,195.02637018603548L166.59560370741482,193.22765859238527L188.17102955911815,185.0685544562399L203.992384769539,188.45272833089086L209.8213051102204,192.46737843424407L211.963877755511,190.55740632964734L209.5406187374749,179.90421240642954L204.8250876753507,173.19149491260114L205.44259769539065,170.6325031608104L201.90594939879773,160.80449136045286L200.03470691382748,163.85488370226014L196.84423847695385,162.677376628067L197.60209168336658,158.7276284894332L196.29222194388768,155.75140982158885L186.57111723446891,154.23084950530807L173.9495866733468,172.15306347709182L170.824611723447,170.5583294868441L168.81302605210433,164.81914146380652L162.70341933867743,163.71580806357684L161.730373246493,161.08264263782127Z" stroke="#b8623b" stroke-width="1" fill="#cc6d42"></path>
          <path d="M237.8618737474949,370.69744526279834L234.5123496993987,368.11991009251466L238.4606713426854,362.99265487968773L162.77826903807608,363.29862128479397L162.47887024048092,365.7741676533749L159.39132014028038,367.6748680487273L158.35278056112216,372.06038652190324L158.68960420841697,381.43408456922594L155.01261272545096,397.82646651548254L155.3494363727454,400.441088522747L156.48153807615225,394.062152561761L155.11553106212406,402.8795480543459L156.81836172344674,418.76198599209283L158.63346693386768,419.59643982419846L166.7827279559117,415.18310622328295L170.69362474949907,410.8532180055784L175.38108717434883,409.56445042043805L182.28597194388777,414.44136948363393L182.08013527054123,412.67974472696625L189.04115731462912,416.09173372935356L191.56733466933863,420.1156555419528L184.43790080160318,416.9818178169328L179.0580786573145,417.3619578960043L174.22091683366716,412.9486242950899L168.8691633266533,418.7990728290753L165.50092685370728,420.2547311806361L165.37929609218418,421.9607256818314L162.853118737475,421.68257440446325L163.09638026052087,420.319633145356L157.8101202404808,421.5805856027605L154.4605961923848,429.20193060266104L155.88274048096193,434.0046759918924L161.24385020040063,441.9227156876512L166.1184368737476,439.36372393586055L173.66890030060134,440.2908948604219L192.5871618236472,438.93722531056255L208.96053356713423,429.8416785406086L214.73331663326667,430.35162254911785L223.20068887775554,428.6178129201866L232.99664328657312,431.3529671476443L238.68522044088175,430.9450119408363L232.98728707414827,421.73820465993765L232.0516658316633,414.20957675249247L226.22274549098194,409.712797768367L226.56892535070122,402.0265508037478L229.4132139278557,398.985430171185L228.58986723446904,395.32310501916515L230.85407064128253,391.61442132091724L229.22608967935864,385.97722209958073L237.48762525050097,371.83786550000957Z" stroke="#8fb970" stroke-width="1" fill="#9fcd7c"></path>
        </g>
      </g>
      <g>
        <g></g>
      </g>
      <g></g>
    </g>
    <g>
      <rect x="61.465248982235245" y="441.935" width="130.06950203552952" height="12.065" stroke="none" stroke-width="0" fill="url(https://www.ansd.sn/index.php?option=com_regions&amp;view=regions&amp;Itemid=213#_ABSTRACT_RENDERER_ID_2)"></rect>
      <g>
        <text text-anchor="start" x="7.5" y="452.05" font-family="Arial" font-size="13" stroke="#ffffff" stroke-width="3" fill="#000000" aria-hidden="true">203,723</text>
        <text text-anchor="start" x="7.5" y="452.05" font-family="Arial" font-size="13" stroke="none" stroke-width="0" fill="#000000">203,723</text>
      </g>
      <g>
        <text text-anchor="start" x="198.5" y="452.05" font-family="Arial" font-size="13" stroke="#ffffff" stroke-width="3" fill="#000000" aria-hidden="true">4,042,225</text>
        <text text-anchor="start" x="198.5" y="452.05" font-family="Arial" font-size="13" stroke="none" stroke-width="0" fill="#000000">4,042,225</text>
      </g>
    </g>
    <g></g>
    <g></g>
  </g>
</svg>